<svg width="1440" height="72" viewBox="0 0 1440 72" fill="none" xmlns="http://www.w3.org/2000/svg">
<g clip-path="url(#clip0_34_2511)">
<g clip-path="url(#clip1_34_2511)">
<g clip-path="url(#clip2_34_2511)">
<path d="M648.999 33.4611C648.999 32.3212 648.633 31.2504 647.935 30.3178C648.201 29.4197 648.267 28.2798 648.201 26.9672C648.168 26.4145 647.735 26 647.203 26C646.903 26 644.375 26.0345 642.911 27.3817C641.646 27.1399 640.315 27.1399 639.018 27.3817C637.587 26.0345 635.059 26 634.726 26C634.193 26 633.761 26.4145 633.728 26.9672C633.628 28.2798 633.728 29.4197 633.994 30.3178C633.295 31.285 632.929 32.3558 632.929 33.4611C632.929 35.8791 634.726 38.0553 637.454 39.0915C637.354 39.2988 637.288 39.5406 637.221 39.7824C634.327 39.4715 632.962 36.7427 632.896 36.639C632.663 36.1209 632.064 35.9136 631.565 36.19C631.066 36.4318 630.866 37.0535 631.132 37.5717C631.199 37.7444 633.029 41.4404 637.055 41.8549V44.9637C637.055 45.5509 637.487 46 638.053 46H643.876C644.441 46 644.874 45.5509 644.874 44.9637V40.8532C644.874 40.2314 644.741 39.6442 644.508 39.1261C647.203 38.0553 648.999 35.9136 648.999 33.4611Z" fill="#505F79"/>
</g>
</g>
<g clip-path="url(#clip3_34_2511)">
<path d="M683.644 29.0342C680.156 29.0342 677.289 31.8618 677.289 35.379V45.31C677.289 45.6894 677.599 45.9997 677.979 45.9997H681.572C681.952 45.9997 682.263 45.6894 682.263 45.31V35.6549C682.263 34.8962 682.884 34.2756 683.644 34.2756C684.404 34.2756 685.026 34.8962 685.026 35.6549V45.31C685.026 45.6894 685.337 45.9997 685.717 45.9997H689.309C689.689 45.9997 690 45.6894 690 45.31V35.379C690 31.8962 687.168 29.0342 683.644 29.0342Z" fill="#505F79"/>
<path d="M674.283 32.2764H670.691C670.311 32.2764 670 32.5867 670 32.966V45.3108C670 45.6902 670.311 46.0005 670.691 46.0005H674.283C674.663 46.0005 674.974 45.6902 674.974 45.3108V32.966C674.974 32.5867 674.663 32.2764 674.283 32.2764Z" fill="#505F79"/>
<path d="M672.487 26C671.105 26 670 27.1034 670 28.4828C670 29.8621 671.105 30.9655 672.487 30.9655C673.869 30.9655 674.974 29.8621 674.974 28.4828C674.974 27.1034 673.869 26 672.487 26Z" fill="#505F79"/>
</g>
<g clip-path="url(#clip4_34_2511)">
<path d="M719.464 46C724.161 46 727.083 42.5392 727.083 38.0742C727.083 36.3908 726.809 34.8708 724.898 34.4142C725.363 33.1408 726.705 29.4575 726.705 28.2775C726.705 27.2383 726.08 26.3675 724.966 26.3675C723.19 26.3675 721.598 31.5117 721.1 32.7383C720.714 31.625 718.908 26 717.315 26C716.078 26 715.497 26.8942 715.497 28.0192C715.497 29.3983 716.858 32.9725 717.351 34.3475C717.101 34.2575 716.83 34.1792 716.554 34.1792C715.623 34.1792 714.632 35.3158 714.632 36.2342C714.632 36.5817 714.827 37.07 714.95 37.3942C713.482 37.785 712.917 38.7458 712.917 40.195C712.913 43.015 715.636 46 719.464 46V46ZM723.489 30.2192C723.649 29.7383 724.329 27.7075 724.966 27.7075C725.308 27.7075 725.4 28.055 725.4 28.3325C725.4 29.0783 723.864 33.2 723.525 34.1133L722.172 33.8792L723.489 30.2192ZM716.747 27.8875V27.8867C716.747 27.4217 717.324 26.1017 718.589 29.7267L719.967 33.645C719.346 33.5942 718.864 33.5275 718.558 33.7C718.124 32.575 716.747 29.0242 716.747 27.8875V27.8875ZM716.655 35.5308L716.656 35.5317C717.822 35.5317 719.327 39.2267 719.327 39.7267C719.327 39.9258 719.132 40.1717 718.905 40.1717C718.073 40.1717 715.843 37.1675 715.843 36.355C715.847 36.0542 716.348 35.5308 716.655 35.5308V35.5308ZM715.315 38.5892C715.768 38.5892 717.476 40.945 717.476 41.445C717.476 41.6367 717.169 41.7692 717.011 41.7692C716.37 41.7692 716.119 41.1633 714.978 39.7617C713.795 40.9217 715.793 43.1558 717.298 43.1558C718.337 43.1558 719.013 42.2108 718.811 41.515C718.958 41.515 719.141 41.5267 719.277 41.4917C719.321 42.55 719.639 43.8117 720.937 43.9017C720.937 43.8667 721.017 43.6242 721.017 43.6125C721.017 42.9325 720.595 42.3392 720.595 41.6475C720.595 40.5417 721.458 39.4717 722.334 38.8467C722.653 38.6125 723.039 38.4675 723.413 38.335C723.799 38.1908 724.209 38.0225 724.503 37.7333C724.458 37.2958 724.276 36.9092 723.83 36.9092C722.728 36.9092 719.03 37.0658 719.03 35.3583C719.03 35.0967 719.034 34.8467 719.723 34.8467C721.009 34.8467 724.273 35.1592 725.228 35.9833C725.948 36.6125 726.196 40.405 723.994 42.8075L723.992 42.8083C722.833 44.0583 721.353 44.7067 719.625 44.7067C717.261 44.7067 715.393 43.4333 714.494 41.2575C713.813 39.5625 714.646 38.5892 715.315 38.5892V38.5892ZM720.066 37.8858C720.453 38.0075 720.851 38.0433 721.249 38.1208C720.954 38.3317 720.693 38.59 720.441 38.8667C720.329 38.535 720.193 38.2108 720.066 37.8858Z" fill="#505F79"/>
</g>
<g clip-path="url(#clip5_34_2511)">
<g clip-path="url(#clip6_34_2511)">
<path d="M769.766 26.37C769.433 25.9713 768.866 25.8717 768.433 26.1707L766.5 27.4996C765.6 26.5361 764.333 26.0046 762.966 26.0046C760.266 26.0046 758.033 28.1972 758.033 30.9215C758.033 31.3202 758.066 31.6856 758.166 32.0511C755.833 31.5527 754.433 29.8584 753.9 26.8019C753.833 26.4032 753.533 26.1042 753.133 26.0046C752.766 25.9049 752.366 26.071 752.133 26.37C752.066 26.4365 746.566 34.0776 754.533 40.556C753.766 42.1839 751.466 43.5793 750.566 44.0444C750.133 44.2437 749.933 44.7088 750.033 45.1739C750.133 45.6391 750.533 45.9381 751 45.9381H752.733C762.866 45.9381 767.466 40.9215 767.566 29.6923L769.666 27.6989C770.066 27.3667 770.1 26.7687 769.766 26.37Z" fill="#505F79"/>
</g>
</g>
<path d="M808.404 29.8804L810 28.3377V28H804.472L800.532 37.9099L796.049 28H790.252V28.3377L792.117 30.6055C792.298 30.7731 792.393 31.0181 792.369 31.2648V40.1768C792.427 40.4977 792.323 40.8278 792.1 41.0611L790 43.6328V43.9663H795.954V43.6286L793.854 41.0611C793.627 40.8269 793.519 40.5027 793.565 40.1768V32.4682L798.792 43.9705H799.399L803.893 32.4682V41.6312C803.893 41.8728 803.893 41.9225 803.737 42.0808L802.12 43.6615V44H809.963V43.6623L808.405 42.1204C808.268 42.016 808.197 41.8408 808.227 41.6707V30.3301C808.197 30.1592 808.267 29.984 808.404 29.8804V29.8804Z" fill="#505F79"/>
</g>
<rect width="1440" height="1" fill="#DFE1E6"/>
<defs>
<clipPath id="clip0_34_2511">
<rect width="200" height="40" fill="white" transform="translate(620 16)"/>
</clipPath>
<clipPath id="clip1_34_2511">
<rect width="18" height="20" fill="white" transform="translate(631 26)"/>
</clipPath>
<clipPath id="clip2_34_2511">
<rect width="18" height="20" fill="white" transform="translate(631 26)"/>
</clipPath>
<clipPath id="clip3_34_2511">
<rect width="20" height="20" fill="white" transform="translate(670 26)"/>
</clipPath>
<clipPath id="clip4_34_2511">
<rect width="20" height="20" fill="white" transform="translate(710 26)"/>
</clipPath>
<clipPath id="clip5_34_2511">
<rect width="20" height="20" fill="white" transform="translate(750 26)"/>
</clipPath>
<clipPath id="clip6_34_2511">
<rect width="20" height="19.9667" fill="white" transform="translate(750 25.9717)"/>
</clipPath>
</defs>
</svg>
